<svg width="48" height="48" viewBox="0 0 48 48" fill="none" xmlns="http://www.w3.org/2000/svg">
<path d="M24 25.8828C23.886 25.8828 23.7732 25.8576 23.6616 25.8084L6.5208 18.138C6.198 17.994 5.9928 17.664 6 17.2956C6.0072 16.932 6.2292 16.602 6.552 16.476L23.6952 9.65881C23.7936 9.62041 23.8956 9.60001 24 9.60001C24.1032 9.60001 24.2064 9.62041 24.3048 9.65881L41.4468 16.4736C41.7768 16.6056 41.9928 16.9272 42 17.2932C42.0096 17.6628 41.8044 17.994 41.4792 18.138L24.3372 25.812C24.2304 25.8588 24.1152 25.8828 24 25.8828ZM9.1512 17.3616L23.958 23.988L38.8488 17.3616L24 11.4588L9.1512 17.3616Z" fill="#CB4A4C"/>
<path d="M6.5208 24.588C6.0876 24.3924 5.8848 23.8632 6.0696 23.4084C6.2052 23.0784 6.516 22.8636 6.8604 22.8636C6.9768 22.8636 7.0896 22.8888 7.1988 22.938L23.9592 30.4368L40.8036 22.938C40.914 22.8876 41.0268 22.8636 41.1432 22.8636C41.4864 22.8636 41.796 23.076 41.9304 23.4084C42.1164 23.8632 41.9136 24.3924 41.4792 24.588L24 32.4096L6.5208 24.588Z" fill="#CB4A4C"/>
<path d="M6.52081 30.576C6.08641 30.3792 5.88361 29.8512 6.06961 29.3988C6.20521 29.0688 6.51601 28.854 6.86041 28.854C6.97681 28.854 7.08961 28.8792 7.19881 28.9272L23.9592 36.4272L40.8036 28.9272C40.9116 28.8804 41.0268 28.854 41.1432 28.854C41.4864 28.854 41.796 29.0688 41.9304 29.3988C42.1164 29.8524 41.9136 30.3816 41.4804 30.576L24 38.4L6.52081 30.576Z" fill="#CB4A4C"/>
</svg>
