<svg width="40" height="40" viewBox="0 0 40 40" fill="none" xmlns="http://www.w3.org/2000/svg">
<g clip-path="url(#clip0_3_142)">
<path d="M3.55833 34.9416C1.60942 34.9416 0.000793457 33.3639 0.000793457 31.3841V3.63535C0.000793457 1.68644 1.57848 0.0778198 3.55833 0.0778198H29.6675C31.6164 0.0778198 33.225 1.65551 33.225 3.63535V16.7518L33.1013 16.7209C32.5754 16.5662 32.0804 16.5043 31.5236 16.5043H31.4927L31.4617 16.4115H31.3689V3.63535C31.3689 2.73823 30.5646 1.93392 29.6675 1.93392H3.55833C2.66121 1.93392 1.8569 2.73823 1.8569 3.63535V31.3841C1.8569 32.2812 2.66121 33.0855 3.55833 33.0855H17.2626L17.2935 33.1165C17.6338 33.5805 17.4482 33.9208 17.3244 34.1683C17.2007 34.3848 17.1388 34.5395 17.3554 34.756L17.541 34.9416H3.55833Z" fill="white"/>
<path d="M5.56908 6.88353C5.22879 6.88353 4.95038 6.45044 4.95038 5.92455C4.95038 5.39865 5.22879 4.96556 5.56908 4.96556H16.087C16.4273 4.96556 16.7057 5.39865 16.7057 5.92455C16.7057 6.45044 16.4273 6.88353 16.087 6.88353H5.56908Z" fill="white"/>
<path d="M16.087 5.05836H5.56908C5.29066 5.05836 5.04318 5.42959 5.04318 5.92455C5.04318 6.41951 5.29066 6.79073 5.56908 6.79073H16.087C16.3654 6.79073 16.6129 6.41951 16.6129 5.92455C16.6129 5.42959 16.3964 5.05836 16.087 5.05836ZM5.44534 11.8331C5.16692 11.8331 4.95038 11.431 4.95038 10.8742C4.95038 10.3173 5.16692 9.91517 5.44534 9.91517H12.9935C13.2719 9.91517 13.4885 10.3173 13.4885 10.8742C13.4885 11.431 13.2719 11.8331 12.9935 11.8331H5.44534Z" fill="white"/>
<path d="M12.9935 10.008H5.44532C5.22877 10.008 5.0741 10.3792 5.0741 10.8742C5.0741 11.3691 5.22877 11.7403 5.44532 11.7403H12.9935C13.21 11.7403 13.3647 11.3691 13.3647 10.8742C13.3647 10.3792 13.1791 10.008 12.9935 10.008ZM28.5847 39.9222C27.502 39.9222 26.3265 39.8603 24.8107 39.7366C22.6143 39.551 20.6035 38.5301 18.6546 36.6431L9.86903 28.0431C7.82732 26.0633 7.73451 23.4647 9.55968 21.4849C10.3331 20.6806 11.5395 20.1856 12.8388 20.1856C14.1381 20.1856 15.3136 20.6806 16.056 21.5467C16.087 21.5777 16.1488 21.6396 16.2726 21.7014C16.3035 21.7324 16.3654 21.7633 16.3963 21.7942V17.6489V15.6072C16.3963 14.0295 16.3963 12.4209 16.4273 10.8432C16.4582 8.49216 18.2834 6.69792 20.6963 6.69792H20.7272C23.0474 6.69792 24.8107 8.39935 24.9344 10.7195C24.9653 11.2454 24.9653 11.8022 24.9344 12.359V13.0705H25.3984C27.0071 13.0705 28.2445 13.6274 29.1416 14.8029C29.1725 14.8648 29.3581 14.9266 29.6056 14.9266C29.6984 14.9266 29.7912 14.9266 29.8531 14.8957C30.1315 14.8648 30.4099 14.8338 30.6574 14.8338C31.8948 14.8338 32.9775 15.3288 33.9056 16.3497C34.0602 16.5043 34.4005 16.6281 34.7099 16.6281H34.8336C35.0502 16.5971 35.2976 16.5662 35.5142 16.5662C37.8343 16.5662 39.6904 18.2058 39.7214 20.3403C39.8142 24.269 39.876 28.1359 39.4429 31.9719C38.917 36.6121 36.4422 39.0869 31.6164 39.7056C30.7193 39.8603 29.6984 39.9222 28.5847 39.9222ZM12.6841 21.9489C12.0345 21.9489 11.4158 22.1964 10.9518 22.6295C10.3949 23.1863 10.0856 23.8359 10.0856 24.5475C10.0856 25.2899 10.4259 26.0323 11.0446 26.651L12.2201 27.8266C14.7877 30.3632 17.4481 32.9618 20.1085 35.5294C21.4078 36.7668 22.8927 37.5711 24.5322 37.8805C25.8006 38.1279 27.0689 38.2517 28.3063 38.2517C29.42 38.2517 30.5337 38.1589 31.6164 37.9423C35.5451 37.2308 37.3394 35.3438 37.7106 31.6934C38.0509 28.1978 38.0199 24.6093 37.9581 21.1446V20.5878C37.9271 19.3194 37.03 18.4532 35.7617 18.4532C35.4214 18.4532 35.112 18.5151 34.7718 18.6389V23.4647C34.7718 23.8978 34.7718 24.7331 33.9056 24.7331H33.8746C33.5962 24.7331 33.3797 24.6712 33.2559 24.5165C33.0085 24.269 32.9775 23.805 32.9775 23.4338V23.2482C32.9775 21.8252 33.0085 20.3712 32.9775 18.9173C32.9466 17.6489 32.0495 16.7518 30.8121 16.7518C30.5027 16.7518 30.1934 16.8137 29.9149 16.9065V21.918C29.9149 22.3511 29.8221 22.6913 29.6056 22.9079C29.4509 23.0626 29.2344 23.1554 28.956 23.1554H28.925C28.0898 23.1244 28.0898 22.2583 28.0898 21.9489V19.9072V17.3086C28.0898 16.7209 27.8423 16.1022 27.3783 15.6382C26.9452 15.2051 26.3574 14.9576 25.7697 14.9576C25.5222 14.9576 25.2438 14.9885 24.9963 15.0813V17.3086C24.9963 18.3604 24.9963 19.4741 24.9344 20.5568C24.9035 20.8352 24.656 21.0518 24.4085 21.2683C24.3157 21.3611 24.192 21.4539 24.0992 21.5467L24.0064 21.6396L23.9445 21.4849C23.8826 21.3921 23.7898 21.2993 23.697 21.2374C23.5114 21.0209 23.2948 20.8043 23.1711 20.5568C23.0783 20.3712 23.1092 20.1547 23.1092 19.9691V19.7216V17.0302C23.1092 15.0504 23.1092 13.0087 23.0783 10.9979C23.0783 9.51301 22.1193 8.52309 20.7272 8.49216C19.2114 8.49216 18.1906 9.57488 18.1906 11.1526V25.723L17.7884 25.9705L17.7575 25.9086C17.4791 25.5992 17.1697 25.2899 16.8913 24.9805C16.2417 24.3 15.5611 23.5575 14.8805 22.877C14.2618 22.2892 13.4884 21.9489 12.6841 21.9489Z" fill="white"/>
</g>
<defs>
<clipPath id="clip0_3_142">
<rect width="40" height="40" fill="white"/>
</clipPath>
</defs>
</svg>
