<svg width="48" height="48" viewBox="0 0 48 48" fill="none" xmlns="http://www.w3.org/2000/svg">
<path d="M24.3201 21.74C24.1201 21.72 23.8801 21.72 23.6601 21.74C18.9001 21.58 15.1201 17.68 15.1201 12.88C15.1201 7.98 19.0801 4 24.0001 4C28.9001 4 32.8801 7.98 32.8801 12.88C32.8601 17.68 29.0801 21.58 24.3201 21.74Z" stroke="white" stroke-width="2" stroke-linecap="round" stroke-linejoin="round"/>
<path d="M14.32 29.12C9.48 32.36 9.48 37.64 14.32 40.86C19.82 44.54 28.84 44.54 34.34 40.86C39.18 37.62 39.18 32.34 34.34 29.12C28.86 25.46 19.84 25.46 14.32 29.12Z" stroke="white" stroke-width="2" stroke-linecap="round" stroke-linejoin="round"/>
</svg>
